<svg width="16" height="16" viewBox="0 0 16 16" fill="none" xmlns="http://www.w3.org/2000/svg">
<path d="M12.25 4.75009C12.25 4.94787 12.1914 5.14121 12.0815 5.30566C11.9716 5.47011 11.8154 5.59828 11.6327 5.67397C11.45 5.74966 11.2489 5.76946 11.0549 5.73088C10.8609 5.69229 10.6828 5.59705 10.5429 5.4572C10.403 5.31735 10.3078 5.13916 10.2692 4.94518C10.2306 4.7512 10.2504 4.55013 10.3261 4.36741C10.4018 4.18468 10.53 4.0285 10.6944 3.91862C10.8589 3.80874 11.0522 3.75009 11.25 3.75009C11.5152 3.75009 11.7696 3.85545 11.9571 4.04298C12.1446 4.23052 12.25 4.48487 12.25 4.75009ZM15.25 6.17134C15.201 7.53109 14.6278 8.81914 13.6505 9.76581C12.6731 10.7125 11.3675 11.2444 10.0069 11.2501H10C9.49972 11.2509 9.00192 11.1797 8.52188 11.0388L8.03063 11.5307C7.96093 11.6003 7.87819 11.6556 7.78714 11.6932C7.6961 11.7308 7.59853 11.7502 7.5 11.7501H6.75V12.5001C6.75 12.699 6.67099 12.8898 6.53033 13.0304C6.38968 13.1711 6.19892 13.2501 6 13.2501H5.25V14.0001C5.25 14.199 5.17099 14.3898 5.03033 14.5304C4.88968 14.6711 4.69892 14.7501 4.5 14.7501H2.5C2.16848 14.7501 1.85054 14.6184 1.61612 14.384C1.3817 14.1496 1.25 13.8316 1.25 13.5001V11.707C1.24956 11.5428 1.2817 11.3801 1.34457 11.2284C1.40744 11.0767 1.49978 10.939 1.61625 10.8232L4.96125 7.47822C4.74939 6.74969 4.69795 5.98389 4.81048 5.23357C4.92301 4.48325 5.19682 3.76623 5.61308 3.1319C6.02933 2.49756 6.57812 1.96099 7.22167 1.55913C7.86521 1.15726 8.58821 0.899657 9.34088 0.804054C10.0935 0.70845 10.858 0.77712 11.5816 1.00533C12.3051 1.23355 12.9707 1.61588 13.5323 2.126C14.0939 2.63613 14.5383 3.26192 14.8348 3.96028C15.1314 4.65864 15.273 5.41298 15.25 6.17134ZM12.6519 3.34822C12.2901 2.98316 11.8565 2.69709 11.3785 2.50808C10.9006 2.31907 10.3886 2.23123 9.875 2.25009C7.875 2.31259 6.25 3.99322 6.25 5.99322C6.24846 6.468 6.33755 6.93872 6.5125 7.38009C6.57148 7.51788 6.58781 7.67018 6.5594 7.81734C6.531 7.9645 6.45915 8.09978 6.35313 8.20572L2.75 11.8126V13.2501H3.75V12.5001C3.75 12.3012 3.82902 12.1104 3.96967 11.9698C4.11033 11.8291 4.30109 11.7501 4.5 11.7501H5.25V11.0001C5.25 10.8012 5.32902 10.6104 5.46967 10.4698C5.61033 10.3291 5.80109 10.2501 6 10.2501H7.1875L7.79063 9.64697C7.89662 9.54082 8.03201 9.4689 8.1793 9.44049C8.32659 9.41207 8.47901 9.42848 8.61688 9.48759C9.05704 9.66224 9.52647 9.75133 10 9.75009H10.005C12.005 9.75009 13.6844 8.12072 13.7481 6.12509C13.767 5.61163 13.6793 5.09983 13.4906 4.62192C13.302 4.14401 13.0164 3.71034 12.6519 3.34822Z" fill="#8A8880"/>
</svg>
