<svg width="270" height="270" viewBox="0 0 270 270" fill="none" xmlns="http://www.w3.org/2000/svg">
<g opacity="0.18" filter="url(#filter0_f_32_3318)">
<path d="M66 135C66 96.8924 96.8924 66 135 66C173.108 66 204 96.8924 204 135C204 173.108 173.108 204 135 204C96.8924 204 66 173.108 66 135Z" fill="#FF6900"/>
</g>
<path fill-rule="evenodd" clip-rule="evenodd" d="M137.521 89.1234C141.642 90.125 145.514 91.7513 149.04 93.8991L155.303 89.1131C157.756 87.2389 161.169 87.4661 163.353 89.65L167.008 93.3053C169.192 95.4891 169.42 98.9019 167.545 101.354L162.764 107.612C164.907 111.138 166.539 115.01 167.54 119.13L175.342 120.173C178.404 120.581 180.655 123.157 180.655 126.244L180.645 131.407C180.645 134.495 178.393 137.066 175.332 137.479L167.525 138.522C166.523 142.642 164.897 146.514 162.749 150.04L166.89 155.456H142.396C151.798 150.298 158.175 140.308 158.175 128.826C158.175 112.062 144.586 98.4737 127.82 98.4737C111.055 98.4737 97.4652 112.062 97.4652 128.826C97.4652 133.096 98.3481 137.159 99.9384 140.846C96.2415 140.913 92.7151 141.677 89.488 143.019C88.9459 141.558 88.4864 140.056 88.1146 138.522L80.3129 137.479C77.2511 137.072 75 134.495 75 131.408V126.24C75 123.152 77.2511 120.581 80.3129 120.168L88.1146 119.125C89.1162 115.005 90.7427 111.133 92.8906 107.607L88.1094 101.35C86.2351 98.8971 86.4623 95.4845 88.6464 93.3007L92.3019 89.6454C94.4859 87.4615 97.8938 87.2343 100.351 89.1084L106.614 93.8944C110.141 91.7518 114.013 90.1203 118.134 89.1187L119.177 81.3126C119.584 78.251 122.161 76 125.249 76L130.407 76.0103C133.494 76.0103 136.066 78.2613 136.479 81.3229L137.521 89.1234ZM100.473 144.062C86.4029 144.062 75.0025 155.467 75.0025 169.531C75.0025 183.6 86.4081 195 100.473 195C110.66 195 119.448 189.021 123.523 180.383H133.839L140.809 173.605C141.155 173.264 141.713 173.264 142.059 173.605L147.408 178.809C147.754 179.149 148.312 179.149 148.658 178.809L154.007 173.605C154.353 173.264 154.91 173.264 155.256 173.605L160.605 178.809C160.951 179.149 161.509 179.149 161.855 178.809L167.204 173.605C167.55 173.264 168.108 173.264 168.454 173.605L173.803 178.809C174.149 179.149 174.706 179.149 175.052 178.809L180.401 173.605C180.747 173.264 181.305 173.264 181.651 173.605L186.855 178.669C187.258 179.062 187.909 178.995 188.224 178.525L193.449 170.755C194.409 169.33 194.084 167.409 192.711 166.376L183.303 159.319C182.72 158.885 182.095 158.674 181.367 158.674L123.523 158.679C119.449 150.041 110.661 144.062 100.473 144.062ZM100.473 156.458C107.697 156.458 113.547 162.313 113.547 169.53C113.547 176.753 107.692 182.603 100.473 182.603C93.2501 182.603 87.4001 176.748 87.4001 169.53C87.4001 162.313 93.2552 156.458 100.473 156.458Z" fill="#E06400"/>
<defs>
<filter id="filter0_f_32_3318" x="0" y="0" width="270" height="270" filterUnits="userSpaceOnUse" color-interpolation-filters="sRGB">
<feFlood flood-opacity="0" result="BackgroundImageFix"/>
<feBlend mode="normal" in="SourceGraphic" in2="BackgroundImageFix" result="shape"/>
<feGaussianBlur stdDeviation="33" result="effect1_foregroundBlur_32_3318"/>
</filter>
</defs>
</svg>
