<svg width="22" height="22" viewBox="0 0 22 22" fill="none" xmlns="http://www.w3.org/2000/svg">
<path d="M6.41667 2.75H3.66667C3.16041 2.75 2.75 3.16041 2.75 3.66667V6.41667C2.75 6.92293 3.16041 7.33333 3.66667 7.33333H6.41667C6.92293 7.33333 7.33333 6.92293 7.33333 6.41667V3.66667C7.33333 3.16041 6.92293 2.75 6.41667 2.75Z" stroke="white" stroke-width="1.83333" stroke-linecap="round" stroke-linejoin="round"/>
<path d="M18.3332 2.75H15.5832C15.0769 2.75 14.6665 3.16041 14.6665 3.66667V6.41667C14.6665 6.92293 15.0769 7.33333 15.5832 7.33333H18.3332C18.8394 7.33333 19.2498 6.92293 19.2498 6.41667V3.66667C19.2498 3.16041 18.8394 2.75 18.3332 2.75Z" stroke="white" stroke-width="1.83333" stroke-linecap="round" stroke-linejoin="round"/>
<path d="M6.41667 14.6665H3.66667C3.16041 14.6665 2.75 15.0769 2.75 15.5832V18.3332C2.75 18.8394 3.16041 19.2498 3.66667 19.2498H6.41667C6.92293 19.2498 7.33333 18.8394 7.33333 18.3332V15.5832C7.33333 15.0769 6.92293 14.6665 6.41667 14.6665Z" stroke="white" stroke-width="1.83333" stroke-linecap="round" stroke-linejoin="round"/>
<path d="M19.2498 14.6665H16.4998C16.0136 14.6665 15.5473 14.8597 15.2035 15.2035C14.8597 15.5473 14.6665 16.0136 14.6665 16.4998V19.2498" stroke="white" stroke-width="1.83333" stroke-linecap="round" stroke-linejoin="round"/>
<path d="M19.25 19.25V19.26" stroke="white" stroke-width="1.83333" stroke-linecap="round" stroke-linejoin="round"/>
<path d="M10.9998 6.4165V9.1665C10.9998 9.65273 10.8067 10.119 10.4629 10.4629C10.119 10.8067 9.65273 10.9998 9.1665 10.9998H6.4165" stroke="white" stroke-width="1.83333" stroke-linecap="round" stroke-linejoin="round"/>
<path d="M2.75 11H2.76" stroke="white" stroke-width="1.83333" stroke-linecap="round" stroke-linejoin="round"/>
<path d="M11 2.75H11.01" stroke="white" stroke-width="1.83333" stroke-linecap="round" stroke-linejoin="round"/>
<path d="M11 14.6665V14.6765" stroke="white" stroke-width="1.83333" stroke-linecap="round" stroke-linejoin="round"/>
<path d="M14.6665 11H15.5832" stroke="white" stroke-width="1.83333" stroke-linecap="round" stroke-linejoin="round"/>
<path d="M19.25 11V11.01" stroke="white" stroke-width="1.83333" stroke-linecap="round" stroke-linejoin="round"/>
<path d="M11 19.2502V18.3335" stroke="white" stroke-width="1.83333" stroke-linecap="round" stroke-linejoin="round"/>
</svg>
