<svg width="15" height="15" viewBox="0 0 15 15" fill="none" xmlns="http://www.w3.org/2000/svg">
<g clip-path="url(#clip0_22_6653)">
<path d="M7.20303 1.43431C7.23042 1.37897 7.27273 1.33239 7.32519 1.29982C7.37764 1.26726 7.43816 1.25 7.4999 1.25C7.56165 1.25 7.62216 1.26726 7.67462 1.29982C7.72708 1.33239 7.76939 1.37897 7.79678 1.43431L9.24053 4.35868C9.33564 4.55116 9.47604 4.71769 9.64967 4.84397C9.8233 4.97025 10.025 5.0525 10.2374 5.08368L13.4662 5.55618C13.5273 5.56505 13.5848 5.59085 13.6321 5.63068C13.6794 5.67051 13.7145 5.72278 13.7337 5.78156C13.7528 5.84035 13.7551 5.90331 13.7403 5.96333C13.7255 6.02335 13.6942 6.07803 13.6499 6.12118L11.3149 8.39493C11.1609 8.545 11.0457 8.73023 10.9792 8.9347C10.9127 9.13917 10.8968 9.35674 10.933 9.56868L11.4843 12.7812C11.4951 12.8423 11.4885 12.9053 11.4652 12.9629C11.442 13.0204 11.403 13.0703 11.3527 13.1068C11.3025 13.1433 11.243 13.1649 11.1811 13.1692C11.1191 13.1736 11.0572 13.1604 11.0024 13.1312L8.11615 11.6137C7.92598 11.5138 7.71439 11.4617 7.49959 11.4617C7.28479 11.4617 7.07321 11.5138 6.88303 11.6137L3.9974 13.1312C3.94261 13.1602 3.88078 13.1732 3.81894 13.1688C3.75709 13.1644 3.69773 13.1428 3.64759 13.1063C3.59745 13.0699 3.55855 13.0201 3.53531 12.9626C3.51208 12.9051 3.50544 12.8422 3.51615 12.7812L4.06678 9.56931C4.10315 9.35727 4.08739 9.13956 4.02087 8.93496C3.95434 8.73037 3.83903 8.54503 3.6849 8.39493L1.3499 6.12181C1.30528 6.0787 1.27365 6.02393 1.25863 5.96373C1.24361 5.90353 1.2458 5.84032 1.26495 5.7813C1.2841 5.72229 1.31945 5.66983 1.36695 5.62992C1.41446 5.59001 1.47222 5.56425 1.53365 5.55556L4.76178 5.08368C4.97444 5.05275 5.1764 4.97059 5.35027 4.8443C5.52414 4.71801 5.66472 4.55135 5.7599 4.35868L7.20303 1.43431Z" stroke="white" stroke-width="1.25" stroke-linecap="round" stroke-linejoin="round"/>
</g>
<defs>
<clipPath id="clip0_22_6653">
<rect width="15" height="15" fill="white"/>
</clipPath>
</defs>
</svg>
